<svg width="70" height="12" viewBox="0 0 70 12" fill="none" xmlns="http://www.w3.org/2000/svg">
<path d="M27.2474 0.41625H29.4583L33.2178 7.32292L36.9745 0.41625H39.1387V11.7621H37.3333V3.06458L34.0374 9.0875H32.3458L29.0499 3.06458V11.765H27.2474V0.41625ZM44.9545 11.9662C44.1184 11.9662 43.3844 11.7786 42.7524 11.4033C42.1222 11.0321 41.6089 10.4914 41.2707 9.84292C40.9066 9.13662 40.7242 8.35073 40.7399 7.55625C40.7399 6.68708 40.913 5.91708 41.2591 5.24625C41.6032 4.57542 42.0835 4.05042 42.6999 3.67125C43.3144 3.29403 44.0202 3.10542 44.8174 3.10542C45.6108 3.10542 46.2933 3.29597 46.8649 3.67708C47.4366 4.05819 47.877 4.59194 48.1862 5.27833C48.4953 5.96472 48.6499 6.76972 48.6499 7.69333V8.195H42.5249C42.6033 8.81901 42.8961 9.39638 43.3533 9.82833C43.7908 10.2269 44.3449 10.4262 45.0158 10.4262C45.5544 10.4262 46.0181 10.3446 46.407 10.1812C46.7959 10.0199 47.1605 9.77389 47.5007 9.44333L48.4574 10.6362C47.5087 11.5207 46.2512 11.9981 44.9545 11.9662ZM46.2699 5.23458C46.0768 5.03884 45.8451 4.88537 45.5896 4.78395C45.334 4.68252 45.0601 4.63535 44.7853 4.64542C44.5082 4.63874 44.2326 4.68858 43.9754 4.79187C43.7181 4.89517 43.4846 5.04977 43.2891 5.24625C42.8681 5.68775 42.601 6.25351 42.5278 6.85917H46.9174C46.8649 6.16694 46.6491 5.62542 46.2699 5.23458ZM50.8374 4.80875H49.1778V3.30958H50.8403V0.830417H52.5787V3.30958H55.1016V4.80875H52.5787V8.60917C52.5787 9.24306 52.6856 9.69417 52.8995 9.9625C53.1114 10.2347 53.476 10.3708 53.9932 10.3708C54.2207 10.3708 54.4152 10.3611 54.5766 10.3417C54.7341 10.3222 54.9091 10.296 55.1016 10.2629V11.7475C54.633 11.8863 54.1465 11.9551 53.6578 11.9517C51.7795 11.9517 50.8403 10.9085 50.8403 8.82208L50.8374 4.80875ZM64.1666 11.7621H62.4574V10.5808C62.1541 11.0242 61.7691 11.3654 61.3024 11.6046C60.8357 11.8457 60.303 11.9662 59.7041 11.9662C58.971 11.9662 58.3206 11.7757 57.7528 11.3946C57.1744 10.9989 56.713 10.4549 56.417 9.81958C56.0848 9.10366 55.9183 8.32206 55.9299 7.53292C55.9299 6.66764 56.0952 5.9025 56.4258 5.2375C56.7563 4.5725 57.2123 4.05139 57.7937 3.67417C58.3751 3.29694 59.0439 3.10736 59.8003 3.10542C60.3681 3.10542 60.8795 3.21819 61.3345 3.44375C61.7807 3.6625 62.1657 3.98917 62.4574 4.39458V3.30958H64.1666V11.7621ZM62.4282 6.26708C62.2561 5.80444 61.9451 5.40638 61.5378 5.12753C61.1304 4.84867 60.6468 4.70268 60.1533 4.70958C59.8185 4.69618 59.4849 4.75785 59.1771 4.89007C58.8692 5.0223 58.5949 5.22173 58.3741 5.47375C57.9307 5.98319 57.7091 6.66861 57.7091 7.53C57.7091 8.40111 57.923 9.09139 58.3507 9.60083C58.5613 9.85176 58.8269 10.0507 59.1269 10.1823C59.4268 10.3138 59.7531 10.3743 60.0803 10.3592C60.59 10.3665 61.09 10.2201 61.5153 9.93917C61.9334 9.66729 62.2533 9.26864 62.4282 8.80167V6.26708ZM18.5295 0.03125C17.077 0.03125 15.9453 1.13958 14.9187 2.55125C13.507 0.725418 12.3287 0.03125 10.917 0.03125C8.03825 0.03125 5.83325 3.83458 5.83325 7.8625C5.83325 10.3825 7.032 11.9692 9.04158 11.9692C10.4912 11.9692 11.5295 11.2779 13.3816 7.99375L14.6824 5.66042C14.8671 5.96375 15.0626 6.29139 15.2687 6.64333L16.1378 8.125C17.8266 10.9979 18.7687 11.9692 20.4749 11.9692C22.432 11.9692 23.5228 10.3592 23.5228 7.78667C23.5228 3.57208 21.2683 0.03125 18.5295 0.03125ZM11.9699 7.10417C10.4708 9.49292 9.95158 10.0267 9.11742 10.0267C8.257 10.0267 7.74658 9.25958 7.74658 7.89458C7.74658 4.97208 9.18158 1.9825 10.8908 1.9825C11.8183 1.9825 12.5912 2.525 13.7783 4.24875C12.6524 6.00458 11.9699 7.10417 11.9699 7.10417ZM17.6283 6.80375L16.5928 5.04792C16.3321 4.6148 16.0628 4.18693 15.7849 3.76458C16.7183 2.30042 17.4912 1.57125 18.407 1.57125C20.3116 1.57125 21.837 4.42083 21.837 7.92083C21.837 9.25375 21.4053 10.0267 20.5158 10.0267C19.6612 10.0267 19.2528 9.455 17.6283 6.80375Z" fill="#C3D2D8"/>
</svg>
